<svg width="181" height="26" viewBox="0 0 181 26" fill="none" xmlns="http://www.w3.org/2000/svg">
<path d="M3.19116 12.8365L13.4373 2.31934H3.19116V12.8365Z" fill="#002F7C"/>
<path d="M13.4373 23.3536L3.19116 12.8364V23.3536H13.4373Z" fill="#002F7C"/>
<path d="M13.4373 23.3536L23.6834 12.8364V23.3536H13.4373Z" fill="#002F7C"/>
<path d="M23.6834 12.8365L13.4373 2.31934H23.6834V12.8365Z" fill="#44AF35"/>
<path d="M13.4373 2.31934L3.19116 12.8365H13.4373V2.31934Z" fill="url(#paint0_linear_12591_2322)"/>
<path d="M3.19116 12.8364L13.4373 23.3536V12.8364H3.19116Z" fill="url(#paint1_linear_12591_2322)"/>
<path d="M23.6834 12.8364L13.4373 23.3536V12.8364H23.6834Z" fill="white"/>
<path d="M23.6834 12.8365L13.4373 2.31934V12.8365H23.6834Z" fill="url(#paint2_linear_12591_2322)"/>
<path d="M55.5248 15.5997V14.5341H54.2535L54.2549 15.5997H51.7885C52.4312 14.9677 52.727 14.4103 52.8543 14.095H56.9247C57.052 14.4103 57.3491 14.9663 57.9918 15.5977L55.5248 15.5997ZM52.9088 8.83125L56.8654 8.82987V9.5518L52.9088 9.55318V8.83056V8.83125ZM52.9115 11.3131V10.5863L56.8661 10.5849V11.3131H52.9115ZM56.8654 12.3393V13.0619L52.9109 13.0633V12.3407L56.8654 12.3393ZM58.1704 15.7685C58.7861 16.3313 59.7441 16.9247 61.2525 17.3997V16.2394C60.0237 15.8618 58.747 14.9103 58.3064 14.0936L61.2511 14.0922V13.0619H58.076L58.074 8.82987L60.1402 8.82779L60.1389 7.8009L58.0727 7.80229V6.54236L56.8755 6.54374V7.80229L52.896 7.80367V6.54305L51.6996 6.54512V7.80505H49.634V8.83332L51.7002 8.83194L51.7016 13.064L48.5251 13.0654L48.5265 14.0964L51.4705 14.095C51.0319 14.9131 49.7553 15.8646 48.5265 16.2435V17.4053C50.0356 16.9274 50.9942 16.3348 51.6093 15.7712V16.628L54.2603 16.6266L54.2616 17.9834L49.7513 17.9854V19.0165H60.0304V17.9806L55.5201 17.9827L55.5181 16.6259H58.171V15.7671L58.1704 15.7685Z" fill="#002F7C"/>
<path d="M43.0816 17.9467C42.8175 17.9184 42.7286 17.7932 42.7286 17.5311V7.69583C42.7286 7.28023 42.3985 6.94209 41.995 6.94209H38.9344L38.9371 13.0834C38.9371 15.2817 38.77 17.453 37.3923 19.0027H38.6285C40.0312 17.3424 40.081 15.4884 40.0803 13.0834L40.079 7.95307H41.4648L41.4742 17.7393C41.4742 18.473 41.6763 18.8865 42.3224 18.9978C42.674 19.0663 43.6118 19.0518 44.2552 19.0117L44.4573 17.9315C43.9129 17.973 43.3248 17.9599 43.0809 17.9474M37.5991 16.7352L36.3488 16.9524L36.8123 15.5216H35.8024L35.2648 17.1404L34.3082 17.3023C34.2576 16.7663 34.1505 16.1779 33.906 15.5216H32.8341C33.076 16.099 33.2498 16.8797 33.3145 17.4523C32.7425 17.5422 32.3026 17.6072 31.8835 17.6605V18.8872C33.2868 18.6237 36.0059 17.9495 37.5998 17.6031V16.7345L37.5991 16.7352ZM36.2733 14.2147L33.4202 14.2161V13.0025L36.2733 13.0011V14.2147ZM36.6816 12.0931L32.2857 12.0952V14.3772C32.2857 14.7928 32.6138 15.1309 33.0201 15.1309L37.4159 15.1295L37.4145 12.8448C37.4145 12.4292 37.0871 12.0917 36.6816 12.0924M32.2844 10.5393L32.2857 11.5378L37.4152 11.5351L37.4139 10.5393H32.2844ZM33.0174 9.97089L37.4139 9.96951V6.94209H36.3232V8.98065H35.3941L35.3928 6.52856H34.3028V8.98065H33.3744V6.94416H32.2837V9.21784C32.2837 9.63205 32.6125 9.9702 33.0167 9.9702" fill="#002F7C"/>
<path d="M69.0921 9.84569H70.1646V8.72959H69.0921V6.52576H67.8093V8.72959H66.0173V9.84569H67.8093V13.0225C67.0838 13.2693 66.0173 13.6116 66.0173 13.6116V14.7464C66.0173 14.7464 67.1896 14.3923 67.8093 14.1593V17.5726C67.7959 17.8354 67.7743 17.908 67.4981 17.946C67.0737 17.9757 66.6391 17.9356 66.2154 17.9073L66.4566 19.0649C67.0245 19.096 67.6301 19.1541 68.1934 19.0441C68.8704 18.9065 69.1015 18.3194 69.0927 17.6687V13.6538C69.4821 13.4975 70.1659 13.25 70.1659 13.25V12.174C70.1659 12.174 69.4377 12.4458 69.0927 12.5758V9.84638L69.0921 9.84569ZM77.6984 12.2819C77.6984 12.2819 77.9538 11.5198 77.0355 11.5198H70.7291V12.6359H76.1395C75.6511 13.7333 74.9963 14.6932 74.2006 15.4995C73.5303 14.8183 72.957 14.03 72.5009 13.1407H71.0491C71.6015 14.3578 72.3554 15.4262 73.2629 16.3286C72.4261 16.9779 71.4789 17.491 70.4401 17.8513V19.0981C71.7956 18.6901 73.0729 18.0407 74.1953 17.1549C75.2954 18.0235 76.566 18.6825 77.9531 19.0974V17.8499C76.9136 17.4896 75.963 16.9786 75.1276 16.3272C76.2204 15.2401 77.1096 13.8903 77.6978 12.2826M76.7081 9.71983C76.475 9.71983 76.4703 9.63685 76.4703 9.21849V7.20067C76.4703 7.20067 76.5451 6.52921 75.8754 6.52921H71.6002V8.39698C71.5962 9.22125 71.4062 9.70323 70.5823 9.87749V11.0648C71.5315 11.0648 72.9483 10.141 72.9483 8.43155V7.64531H75.1223V9.11822C75.0946 10.4563 75.4214 10.8491 76.6279 10.876H78.0124V9.72052C78.0009 9.72191 76.8678 9.71776 76.7068 9.72052" fill="#002F7C"/>
<path d="M84.5473 6.52856C83.9645 8.5858 83.117 10.372 82.0034 11.8767V13.3883C82.0034 13.3883 83.3845 11.8511 83.567 11.5876V19.1472H84.773V9.69221C85.5827 8.26079 85.9789 6.52856 85.9789 6.52856H84.5473ZM86.5744 13.4423H93.3672V12.3269H86.5744V13.4423ZM93.3679 10.1714H86.5751V11.2848H93.3679V10.1714ZM90.696 8.04089C90.5357 7.47524 90.3713 6.89022 90.209 6.52926H88.8663L89.2651 8.04089H85.8178V9.15699H94.1265V8.04089H90.6954H90.696ZM92.5507 17.9626C92.5507 17.9986 92.5285 18.0214 92.4847 18.0311H87.4435C87.4084 18.0311 87.3909 18.0083 87.3909 17.9626V15.7851C87.3909 15.7498 87.4084 15.7311 87.4435 15.7311H92.4847C92.5197 15.7311 92.542 15.7498 92.5507 15.7851V17.9626ZM93.5828 14.6171H86.3487C86.1547 14.6171 86.0577 14.716 86.0577 14.9145V18.8353C86.0577 19.0338 86.1547 19.1375 86.3487 19.1465H93.5828C93.7761 19.1465 93.8779 19.0435 93.886 18.8353V14.9145C93.886 14.716 93.7842 14.6171 93.5828 14.6171Z" fill="#002F7C"/>
<path d="M126.334 6.37781H129.694V19.1161H126.334V6.37781ZM131.827 6.37781H136.041L138.299 10.9404C138.761 11.8532 140.041 14.6268 140.397 15.5209H140.433C140.379 14.5722 140.326 11.8165 140.326 10.3561V6.37781H143.295V19.1161H139.135L136.948 14.864C136.166 13.3309 135.046 10.8671 134.708 10.0283H134.673C134.726 10.8131 134.761 13.7873 134.761 14.8827V19.1168H131.828V6.37781H131.827ZM145.427 6.37781H153.962V8.82298H148.717V11.4507H153.642V13.8959H148.717V16.6515H154.139V19.1154H145.428V6.37781H145.427ZM121.071 14.2893L121.07 15.1012V19.1161H124.288V6.37781H120.334C120.095 8.20201 119.683 9.81875 119.12 11.2004C118.357 13.0695 117.357 14.1358 116.51 14.1358C115.662 14.1358 114.7 13.0695 113.937 11.2004C113.374 9.81875 112.962 8.20201 112.722 6.37781H108.731V19.1161H111.943V13.1193C113.132 15.5147 114.766 16.8203 116.51 16.8203C118.253 16.8203 119.886 15.4656 121.07 12.9838L121.071 14.2893Z" fill="url(#paint3_linear_12591_2322)"/>
<defs>
<linearGradient id="paint0_linear_12591_2322" x1="8.33276" y1="7.59692" x2="13.7033" y2="12.829" gradientUnits="userSpaceOnUse">
<stop stop-color="#E73E0C"/>
<stop offset="0.2" stop-color="#E95006"/>
<stop offset="0.52" stop-color="#EF8200"/>
<stop offset="1" stop-color="#FFDD00"/>
</linearGradient>
<linearGradient id="paint1_linear_12591_2322" x1="8.33209" y1="18.076" x2="13.7033" y2="12.8432" gradientUnits="userSpaceOnUse">
<stop stop-color="#E73E0C"/>
<stop offset="0.2" stop-color="#E95006"/>
<stop offset="0.52" stop-color="#EF8200"/>
<stop offset="1" stop-color="#FFDD00"/>
</linearGradient>
<linearGradient id="paint2_linear_12591_2322" x1="18.5991" y1="7.53814" x2="13.3025" y2="12.6982" gradientUnits="userSpaceOnUse">
<stop stop-color="#003482"/>
<stop offset="0.2" stop-color="#003685"/>
<stop offset="0.52" stop-color="#0057A3"/>
<stop offset="1" stop-color="#009BE4"/>
</linearGradient>
<linearGradient id="paint3_linear_12591_2322" x1="145.801" y1="-1.99843" x2="116.229" y2="26.8115" gradientUnits="userSpaceOnUse">
<stop stop-color="#003387"/>
<stop offset="0.2" stop-color="#00358A"/>
<stop offset="0.52" stop-color="#0057A9"/>
<stop offset="1" stop-color="#0093FF"/>
</linearGradient>
</defs>
</svg>
