<svg width="286" height="40" viewBox="0 0 286 40" fill="none" xmlns="http://www.w3.org/2000/svg">
<path d="M5.0459 19.7485L21.2476 3.56824H5.0459V19.7485Z" fill="#002F7C"/>
<path d="M21.2476 35.9286L5.0459 19.7484V35.9286H21.2476Z" fill="#002F7C"/>
<path d="M21.248 35.9286L37.4498 19.7484V35.9286H21.248Z" fill="#002F7C"/>
<path d="M37.4498 19.7485L21.248 3.56824H37.4498V19.7485Z" fill="#44AF35"/>
<path d="M21.2476 3.56824L5.0459 19.7485H21.2476V3.56824Z" fill="url(#paint0_linear_12591_1910)"/>
<path d="M5.0459 19.7484L21.2476 35.9286V19.7484H5.0459Z" fill="url(#paint1_linear_12591_1910)"/>
<path d="M37.4498 19.7484L21.248 35.9286V19.7484H37.4498Z" fill="white"/>
<path d="M37.4498 19.7485L21.248 3.56824V19.7485H37.4498Z" fill="url(#paint2_linear_12591_1910)"/>
<path d="M87.7986 23.9996V22.3602H85.7885L85.7906 23.9996H81.8906C82.9069 23.0272 83.3746 22.1698 83.5759 21.6846H90.0123C90.2136 22.1698 90.6834 23.0251 91.6997 23.9964L87.7986 23.9996ZM83.6622 13.5866L89.9185 13.5844V14.6951L83.6622 14.6972V13.5855V13.5866ZM83.6665 17.4047V16.2866L89.9196 16.2845V17.4047H83.6665ZM89.9185 18.9835V20.0952L83.6654 20.0974V18.9856L89.9185 18.9835ZM91.982 24.2592C92.9556 25.1252 94.4705 26.038 96.8556 26.7688V24.9837C94.9125 24.4028 92.8938 22.9389 92.1972 21.6825L96.8535 21.6804V20.0952H91.8328L91.8296 13.5844L95.0968 13.5812L95.0947 12.0014L91.8275 12.0035V10.0652L89.9345 10.0673V12.0035L83.642 12.0057V10.0662L81.75 10.0694V12.0078H78.4839V13.5897L81.7511 13.5876L81.7532 20.0984L76.7305 20.1006L76.7326 21.6868L81.3878 21.6846C80.6943 22.9432 78.6757 24.4071 76.7326 24.9901V26.7773C79.1188 26.0422 80.6347 25.1305 81.6073 24.2634V25.5816L85.7991 25.5794L85.8013 27.6667L78.6693 27.6699V29.2561H94.9232V27.6625L87.7912 27.6657L87.788 25.5784H91.983V24.2571L91.982 24.2592Z" fill="#002F7C"/>
<path d="M68.123 27.6104C67.7054 27.5667 67.5648 27.3742 67.5648 26.971V11.8397C67.5648 11.2004 67.0428 10.6801 66.4047 10.6801H61.5652L61.5694 20.1283C61.5694 23.5103 61.3052 26.8508 59.1267 29.2349H61.0815C63.2994 26.6806 63.3782 23.8284 63.3772 20.1283L63.375 12.2355H65.5663L65.5812 27.2912C65.5812 28.42 65.9008 29.0562 66.9224 29.2274C67.4785 29.3328 68.9613 29.3104 69.9787 29.2487L70.2983 27.587C69.4375 27.6508 68.5075 27.6306 68.1219 27.6114M59.4538 25.7465L57.4766 26.0805L58.2095 23.8794H56.6127L55.7626 26.3699L54.2499 26.6189C54.17 25.7944 54.0007 24.889 53.614 23.8794H51.9191C52.3015 24.7677 52.5764 25.9688 52.6787 26.8497C51.7742 26.988 51.0786 27.088 50.416 27.1699V29.0572C52.635 28.6519 56.9344 27.6146 59.4549 27.0816V25.7454L59.4538 25.7465ZM57.3573 21.8687L52.8459 21.8709V20.0038L57.3573 20.0017V21.8687ZM58.0029 18.6048L51.052 18.608V22.1187C51.052 22.7581 51.5708 23.2783 52.2131 23.2783L59.164 23.2762L59.1619 19.7612C59.1619 19.1218 58.6442 18.6027 58.0029 18.6037M51.0499 16.2143L51.052 17.7505L59.163 17.7463L59.1608 16.2143H51.0499ZM52.2089 15.3398L59.1608 15.3377V10.6801H57.4362V13.8164H55.9672L55.965 10.0439H54.2414V13.8164H52.7735V10.6833H51.0488V14.1813C51.0488 14.8185 51.5686 15.3388 52.2078 15.3388" fill="#002F7C"/>
<path d="M109.253 15.1473H110.948V13.4302H109.253V10.0397H107.224V13.4302H104.391V15.1473H107.224V20.0346C106.077 20.4144 104.391 20.941 104.391 20.941V22.6868C104.391 22.6868 106.244 22.1421 107.224 21.7836V27.0348C107.203 27.4391 107.169 27.5508 106.732 27.6093C106.061 27.655 105.374 27.5933 104.704 27.5497L105.085 29.3306C105.983 29.3785 106.941 29.4679 107.831 29.2987C108.902 29.087 109.267 28.1838 109.254 27.1827V21.0059C109.869 20.7655 110.951 20.3846 110.951 20.3846V18.7293C110.951 18.7293 109.799 19.1474 109.254 19.3474V15.1483L109.253 15.1473ZM122.861 18.8952C122.861 18.8952 123.265 17.7229 121.813 17.7229H111.841V19.4399H120.396C119.624 21.1283 118.589 22.6049 117.33 23.8454C116.271 22.7975 115.364 21.5847 114.643 20.2165H112.347C113.221 22.0889 114.413 23.7326 115.848 25.1209C114.525 26.1199 113.027 26.9093 111.384 27.4635V29.3817C113.527 28.754 115.547 27.755 117.322 26.3922C119.062 27.7284 121.071 28.7423 123.264 29.3806V27.4614C121.62 26.9071 120.117 26.121 118.796 25.1188C120.524 23.4464 121.93 21.3698 122.86 18.8963M121.295 14.9536C120.927 14.9536 120.919 14.826 120.919 14.1823V11.078C120.919 11.078 121.038 10.045 119.979 10.045H113.219V12.9185C113.212 14.1866 112.912 14.9281 111.609 15.1962V17.0228C113.11 17.0228 115.35 15.6015 115.35 12.9717V11.7621H118.788V14.0281C118.744 16.0866 119.261 16.6909 121.169 16.7324H123.358V14.9547C123.34 14.9568 121.548 14.9504 121.293 14.9547" fill="#002F7C"/>
<path d="M133.69 10.0439C132.769 13.2089 131.429 15.9569 129.668 18.2718V20.5974C129.668 20.5974 131.852 18.2325 132.14 17.8271V29.4572H134.047V14.9111C135.328 12.7089 135.954 10.0439 135.954 10.0439H133.69ZM136.896 20.6804H147.637V18.9644H136.896V20.6804ZM147.638 15.6483H136.897V17.3612H147.638V15.6483ZM143.413 12.3706C143.16 11.5004 142.9 10.6003 142.643 10.045H140.52L141.151 12.3706H135.7V14.0877H148.838V12.3706H143.412H143.413ZM146.346 27.6348C146.346 27.6902 146.311 27.7253 146.241 27.7402H138.27C138.215 27.7402 138.187 27.7051 138.187 27.6348V24.2847C138.187 24.2305 138.215 24.2018 138.27 24.2018H146.241C146.297 24.2018 146.332 24.2305 146.346 24.2847V27.6348ZM147.978 22.4879H136.539C136.232 22.4879 136.079 22.64 136.079 22.9454V28.9774C136.079 29.2828 136.232 29.4423 136.539 29.4562H147.978C148.284 29.4562 148.444 29.2976 148.457 28.9774V22.9454C148.457 22.64 148.296 22.4879 147.978 22.4879Z" fill="#002F7C"/>
<path d="M255.058 17.2462C253.952 17.4802 252.064 17.9356 251.089 18.1132V17.2845C251.381 17.2483 251.685 17.2036 252.082 17.143C252.038 16.7558 251.917 16.2302 251.748 15.8387H252.494C252.662 16.2834 252.738 16.6792 252.772 17.0409L253.438 16.9313L253.81 15.8376H254.512L254.19 16.8047L255.058 16.6568V17.2451V17.2462Z" fill="#003680"/>
<path d="M254.421 13.5216L251.369 13.5237V15.0653C251.369 15.3472 251.597 15.5749 251.879 15.5749H254.931V14.0312C254.931 13.7493 254.703 13.5216 254.421 13.5216ZM254.138 14.9557H252.157V14.1365L254.138 14.1344V14.9557Z" fill="#003680"/>
<path d="M254.929 12.4727L254.932 13.145L251.369 13.1461L251.367 12.4727H254.929Z" fill="#003680"/>
<path d="M251.367 11.578V10.0439L252.125 10.0418V11.4184H252.771V9.76196H253.526L253.529 11.4184H254.173V10.0418H254.931V12.0865H251.879C251.596 12.0865 251.368 11.8588 251.368 11.5769L251.367 11.578Z" fill="#003680"/>
<path d="M259.819 17.4665L259.68 18.1963C259.234 18.2229 258.584 18.2325 258.338 18.1867C257.889 18.1122 257.749 17.8325 257.749 17.3367L257.741 10.7248H256.779L256.781 14.1909C256.781 15.8164 256.747 17.0686 255.772 18.191H254.916C255.87 17.1441 255.988 15.6771 255.988 14.1909L255.986 10.0439H258.11C258.392 10.0439 258.62 10.2716 258.62 10.5514V17.1973C258.62 17.3739 258.682 17.4601 258.865 17.4771C259.033 17.4867 259.442 17.4963 259.819 17.4675V17.4665Z" fill="#003680"/>
<path d="M269.342 16.5856V16.0058C269.771 16.3866 270.435 16.7866 271.483 17.109V16.3239C270.63 16.0696 269.742 15.426 269.438 14.8749L271.482 14.8728V14.1781H269.277V11.3195L270.71 11.3173V10.6237H269.275V9.77368H268.445V10.6237L265.682 10.6258V9.77368L264.85 9.77581V10.6258H263.417V11.3205H264.85L264.853 14.1791H262.647V14.8759H264.692C264.387 15.427 263.501 16.0707 262.647 16.327V17.11C263.695 16.7888 264.361 16.3877 264.788 16.0068V16.5856H266.631V17.5026H263.498L263.5 18.1994H270.636V17.5005L267.503 17.5026V16.5856H269.344H269.342ZM265.689 11.3184H268.436V11.8067H265.689V11.3184ZM265.689 12.5035H268.436V12.9961H265.689V12.5035ZM265.689 13.6908L268.436 13.6887V14.177L265.689 14.1791V13.6908ZM266.623 15.1706V15.8909H264.911C265.358 15.4653 265.563 15.0887 265.652 14.8759H268.478C268.566 15.0887 268.773 15.4643 269.22 15.8909H267.506V15.1706H266.624H266.623Z" fill="#003680"/>
<path d="M259.148 25.256H251.284V25.9507H259.148V25.256Z" fill="#003680"/>
<path d="M252.771 28.6827C252.741 28.5444 252.712 28.3082 252.682 28.1699H253.566C253.586 28.3082 253.615 28.5444 253.635 28.6827H256.89C256.929 28.5444 256.958 28.3082 256.978 28.1699H257.866C257.826 28.3178 257.798 28.5635 257.768 28.6827H259.206V29.3838H251.304V28.6827H252.771Z" fill="#003680"/>
<path d="M252.197 21.175V24.0177C252.197 24.1166 252.246 24.1655 252.354 24.1655H254.854V21.0367H255.617V24.1655H258.039C258.137 24.1655 258.196 24.1358 258.196 24.0666V21.2038H258.973V24.273C258.973 24.6773 258.708 24.8847 258.2 24.8847H252.156C251.745 24.8847 251.501 24.6773 251.422 24.2826V21.1729H252.198L252.197 21.175Z" fill="#003680"/>
<path d="M253.905 21.1017V21.3581H254.6V21.8751H253.905V22.256H254.561V22.7539H253.905V23.1241H254.61V23.6411H253.905V24.0039H253.211V23.6411H252.546V23.1241H253.211V22.7539H252.604V22.256H253.211V21.8751H252.536V21.3581H253.211V21.1017H253.905Z" fill="#003680"/>
<path d="M257.808 26.1731H251.852V27.9689H257.974C258.61 27.9199 258.932 27.604 258.932 27.0316C258.932 26.4986 258.551 26.2125 257.808 26.1731ZM257.758 27.3423H252.539V26.8157L257.699 26.8061C257.944 26.8157 258.163 26.8848 258.163 27.0604C258.163 27.2742 257.963 27.3316 257.757 27.3423H257.758Z" fill="#003680"/>
<path d="M257.212 21.1017V21.3783H257.837V21.8953H257.212V22.2655H257.818V22.7634H257.212V23.1145H257.857V23.6315H257.212V24.0039H256.497V23.6315H255.891V23.1145H256.497V22.7634H255.92V22.2655H256.497V21.8953H255.9V21.3783H256.497V21.1017H257.212Z" fill="#003680"/>
<path d="M269.426 26.5932C270.211 26.6113 270.61 26.9783 270.619 27.4911C270.6 27.9454 270.515 28.3422 270.477 28.6284L271.128 28.6837V29.3848H262.854V28.6284H263.715L263.706 26.5837L269.427 26.5932H269.426ZM264.207 23.2463H265.524C266.385 23.2463 266.825 23.7006 266.825 24.5985C266.806 25.4964 266.345 25.8858 265.436 25.8858C265.103 25.8858 264.809 25.8655 264.535 25.8262L264.526 25.1113C264.858 25.1411 265.201 25.1772 265.553 25.1506C265.824 25.1294 266.087 24.9772 266.093 24.5389C266.099 24.0953 265.827 23.9846 265.632 23.9453H264.168C264.119 24.7347 264.041 25.5847 263.934 26.2847L263.04 26.2943C263.255 25.2283 263.363 24.0942 263.363 22.9006C263.372 22.5452 263.382 22.141 263.382 21.6867H267.03C267.011 21.4495 267.011 21.2229 267.011 20.9867H267.817C267.797 21.2441 267.796 21.4697 267.826 21.6867H269.005C268.928 21.509 268.83 21.3218 268.712 21.1144H269.555C269.653 21.3112 269.74 21.509 269.819 21.6867H270.67V22.425L267.92 22.4155C268.021 23.108 268.324 23.7985 268.679 24.2123C268.997 23.9123 269.273 23.5219 269.39 23.1272H270.265C270.069 23.7985 269.632 24.4208 269.162 24.8847C269.583 25.24 270.251 25.4709 270.847 25.5985V26.4454C269.909 26.2677 269.145 25.9124 268.569 25.3794C268.129 25.6655 267.619 25.9028 267.053 26.09V25.2666C267.405 25.1283 267.727 24.9708 268.002 24.7932C267.562 24.191 267.214 23.3219 267.076 22.4144H264.22C264.22 22.6612 264.211 23.008 264.211 23.2442L264.207 23.2463ZM265.716 28.6273V27.3071H264.579V28.6273H265.716ZM267.643 28.6273V27.3071H266.516V28.6273H267.643ZM269.628 28.6273C269.705 28.1837 269.745 27.856 269.745 27.6784C269.745 27.4709 269.569 27.3081 269.237 27.3081H268.442V28.6284H269.628V28.6273Z" fill="#003680"/>
<path d="M282.189 22.4176C282.59 23.0687 282.805 23.957 282.845 25.0815C282.845 26.4826 282.639 27.4794 282.248 28.0709C281.837 28.8209 281.24 29.2454 280.468 29.3635H274.824V21.1846H280.399C281.152 21.2835 281.748 21.6973 282.188 22.4176H282.189ZM280.439 28.5848C280.947 28.5156 281.43 28.1007 281.645 27.4996C281.89 26.8975 282.017 26.1187 282.017 25.1613C281.998 24.2336 281.851 23.4942 281.587 22.9612C281.313 22.3889 280.801 21.9633 280.273 21.9037H275.625V28.5848H280.44H280.439ZM276.906 23.1974C276.847 22.9601 276.789 22.724 276.73 22.4974H277.474C277.532 22.724 277.591 22.9612 277.649 23.1974H278.061C278.159 22.9506 278.227 22.6942 278.276 22.4378H279.097C279.019 22.7144 278.94 22.9612 278.852 23.1974H279.4C279.507 22.9506 279.596 22.7038 279.664 22.4676H280.328C280.251 22.7442 280.162 22.9804 280.074 23.1974H280.788V23.8134H278.548C278.471 23.9517 278.401 24.1251 278.333 24.2432H281.082V24.8687H280.104C280.321 25.1421 280.742 25.373 281.231 25.4762V26.2602C280.943 26.2209 280.583 26.0985 280.368 25.9602C280.368 26.0092 280.377 26.0485 280.377 26.089C280.377 26.3358 280.319 26.5326 280.202 26.6911C280.064 26.8486 279.889 26.9177 279.694 26.9177H278.206V26.2964H279.429C279.586 26.2964 279.674 26.2368 279.674 26.0996C279.674 25.9709 279.567 25.8921 279.361 25.8624H277.611C277.601 26.2475 277.601 26.5922 277.601 26.9081C277.601 27.1943 277.728 27.3326 278.002 27.3326C279.743 27.3326 280.652 27.3124 280.741 27.273V28.0028C280.535 28.0326 279.508 28.0422 277.66 28.0422C277.112 27.9826 276.848 27.6475 276.848 27.0358C276.848 26.6219 276.848 26.2368 276.858 25.8815C276.603 26.0783 276.35 26.2464 276.095 26.3847V25.5357C276.369 25.3389 276.756 25.1113 276.939 24.8687H276.154V24.2432H277.445C277.543 24.1251 277.63 23.941 277.709 23.8134H276.369V23.1974H276.907H276.906ZM279.628 25.2985C279.51 25.1804 279.403 24.9964 279.314 24.8687H277.965C277.857 25.007 277.74 25.1804 277.623 25.2985H279.628Z" fill="#003680"/>
<path d="M199.765 9.81201H205.079V29.4093H199.765V9.81201ZM208.451 9.81201H215.115L218.685 16.8313C219.416 18.2356 221.44 22.5028 222.003 23.8783H222.059C221.975 22.4187 221.891 18.1793 221.891 15.9324V9.81201H226.585V29.4093H220.007L216.55 22.8677C215.313 20.5091 213.541 16.7186 213.007 15.4281H212.951C213.035 16.6356 213.092 21.2113 213.092 22.8964V29.4104H208.453V9.81201H208.451ZM229.957 9.81201H243.452V13.5738H235.159V17.6165H242.946V21.3783H235.159V25.6178H243.733V29.4083H229.958V9.81201H229.957ZM191.444 21.9836L191.442 23.2326V29.4093H196.531V9.81201H190.279C189.9 12.6185 189.249 15.1058 188.358 17.2314C187.152 20.107 185.571 21.7474 184.231 21.7474C182.891 21.7474 181.369 20.107 180.163 17.2314C179.272 15.1058 178.622 12.6185 178.242 9.81201H171.932V29.4093H177.01V20.1836C178.89 23.8688 181.474 25.8773 184.231 25.8773C186.988 25.8773 189.57 23.7932 191.442 19.975L191.444 21.9836Z" fill="url(#paint3_linear_12591_1910)"/>
<defs>
<linearGradient id="paint0_linear_12591_1910" x1="13.1761" y1="11.6876" x2="21.4412" y2="19.9637" gradientUnits="userSpaceOnUse">
<stop stop-color="#E73E0C"/>
<stop offset="0.2" stop-color="#E95006"/>
<stop offset="0.52" stop-color="#EF8200"/>
<stop offset="1" stop-color="#FFDD00"/>
</linearGradient>
<linearGradient id="paint1_linear_12591_1910" x1="13.175" y1="27.8093" x2="21.4412" y2="19.5321" gradientUnits="userSpaceOnUse">
<stop stop-color="#E73E0C"/>
<stop offset="0.2" stop-color="#E95006"/>
<stop offset="0.52" stop-color="#EF8200"/>
<stop offset="1" stop-color="#FFDD00"/>
</linearGradient>
<linearGradient id="paint2_linear_12591_1910" x1="29.4102" y1="11.5972" x2="21.2589" y2="19.7593" gradientUnits="userSpaceOnUse">
<stop stop-color="#003482"/>
<stop offset="0.2" stop-color="#003685"/>
<stop offset="0.52" stop-color="#0057A3"/>
<stop offset="1" stop-color="#009BE4"/>
</linearGradient>
<linearGradient id="paint3_linear_12591_1910" x1="230.547" y1="-3.0745" x2="185.036" y2="42.4967" gradientUnits="userSpaceOnUse">
<stop stop-color="#003387"/>
<stop offset="0.2" stop-color="#00358A"/>
<stop offset="0.52" stop-color="#0057A9"/>
<stop offset="1" stop-color="#0093FF"/>
</linearGradient>
</defs>
</svg>
